<?xml version="1.0" encoding="UTF-8" standalone="no"?>
<svg
   version="1.1"
   width="1080"
   height="1080"
   viewBox="0 0 1080 1080"
   xml:space="preserve"
   id="svg84"
   sodipodi:docname="TextFlowLogo2.svg"
   xmlns:inkscape="http://www.inkscape.org/namespaces/inkscape"
   xmlns:sodipodi="http://sodipodi.sourceforge.net/DTD/sodipodi-0.dtd"
   xmlns="http://www.w3.org/2000/svg"
   xmlns:svg="http://www.w3.org/2000/svg"><sodipodi:namedview
   id="namedview86"
   pagecolor="#ffffff"
   bordercolor="#000000"
   borderopacity="0.25"
   inkscape:showpageshadow="2"
   inkscape:pageopacity="0.0"
   inkscape:pagecheckerboard="0"
   inkscape:deskcolor="#d1d1d1"
   showgrid="false" />
<desc
   id="desc2">Created with Fabric.js 5.2.4</desc>
<defs
   id="defs4" />
<g
   transform="translate(540,540)"
   id="5573065e-4922-41b8-b5a1-b217181cfbf7">
<rect
   style="visibility:hidden;opacity:1;fill:#ffffff;fill-rule:nonzero;stroke:none;stroke-width:1;stroke-linecap:butt;stroke-linejoin:miter;stroke-miterlimit:4;stroke-dasharray:none;stroke-dashoffset:0"
   vector-effect="non-scaling-stroke"
   x="-540"
   y="-540"
   rx="0"
   ry="0"
   width="1080"
   height="1080"
   id="rect6" />
</g>


<g
   transform="matrix(4.7996403,0,0,4.8472706,567.48233,580.9376)"
   id="g521">
<g
   vector-effect="non-scaling-stroke"
   id="g519"
   transform="translate(-3.8138451,-1.8881847)">
		<g
   transform="matrix(1.33,0,0,1.33,0.53,-33.17)"
   clip-path="url(#CLIPPATH_3)"
   id="g453">
<clipPath
   id="clipPath449">
	<path
   transform="translate(-187.6,-161.54)"
   id="path447"
   d="m 135.09766,118.29688 h 105 v 86.22265 h -105 z m 0,0"
   stroke-linecap="round" />
</clipPath>
<path
   style="opacity:1;fill:#6c97f8;fill-rule:nonzero;stroke:none;stroke-width:1;stroke-linecap:butt;stroke-linejoin:miter;stroke-miterlimit:4;stroke-dasharray:none;stroke-dashoffset:0"
   vector-effect="non-scaling-stroke"
   transform="translate(-187.6,-161.54)"
   d="m 195.42578,171.60156 v 27.57422 L 236,178.55078 v -54.70703 l -40.57422,19.93359 v 1.69141 l 0.23047,0.10156 0.0859,0.0859 0.10547,0.0391 0.082,0.0859 0.10547,0.082 0.10546,0.043 0.0859,0.082 0.10156,0.0859 c 0.14844,0.10156 0.31641,0.22656 0.46485,0.33203 l 0.0391,0.043 0.043,0.0391 0.0859,0.043 0.0391,0.043 0.0859,0.082 0.082,0.043 h 0.043 l 0.0859,0.082 0.082,0.0859 0.10546,0.082 0.16797,0.16797 0.043,0.0391 0.082,0.043 0.0859,0.082 0.0391,0.043 0.14844,0.14844 h 0.043 l 0.043,0.082 0.0391,0.043 0.043,0.0391 0.0859,0.0859 c 0.082,0.0391 0.10156,0.10156 0.1875,0.14453 l 0.043,0.082 h 0.0391 l 0.0859,0.0859 v 0.043 l 0.082,0.082 0.0859,0.082 0.082,0.0859 h 0.043 l 0.043,0.082 0.043,0.043 0.0391,0.082 h 0.043 l 0.043,0.082 0.082,0.0859 0.043,0.043 0.043,0.082 0.082,0.082 0.14844,0.1875 0.082,0.043 v 0.043 l 0.0859,0.10157 0.082,0.0859 0.0859,0.082 0.082,0.10547 0.0859,0.082 v 0.043 l 0.082,0.082 0.043,0.0859 0.043,0.0391 0.043,0.0859 0.0391,0.043 0.043,0.0391 0.043,0.043 0.043,0.082 0.0391,0.043 v 0.043 l 0.043,0.082 0.043,0.043 0.043,0.082 h 0.0391 l 0.043,0.10547 0.0859,0.082 v 0.043 l 0.082,0.082 0.043,0.10547 0.082,0.10547 c 1.38672,2.25391 2.18359,4.92578 2.18359,7.78516 0,2.9414 -0.88281,5.69921 -2.35156,8.05468 -1.51172,1.77735 -3.27344,3.50782 -5.39453,4.76172 z m -19.9375,17.47266 c 0.50391,0.26953 0.73438,0.875 0.46094,1.375 -0.23047,0.5 -0.83985,0.6914 -1.34375,0.46094 l -31.10938,-15.30079 c -0.5039,-0.27343 -0.6914,-0.8789 -0.46093,-1.3789 0.27343,-0.5 0.88281,-0.6875 1.38671,-0.45703 z m 0,-10.39844 c 0.50391,0.27344 0.73438,0.87891 0.46094,1.37891 -0.23047,0.5 -0.83985,0.6875 -1.34375,0.46093 l -31.10938,-15.32421 c -0.5039,-0.22657 -0.6914,-0.83204 -0.46093,-1.33594 0.27343,-0.5 0.88281,-0.73047 1.38671,-0.45703 z m -7.78906,-14.25391 c 0.5039,0.26954 0.6914,0.875 0.46094,1.375 -0.27344,0.50391 -0.87891,0.69141 -1.38282,0.46094 l -23.28125,-11.46094 c -0.5039,-0.23046 -0.6914,-0.83593 -0.46093,-1.33593 0.27343,-0.5 0.88281,-0.73047 1.38671,-0.45703 z m 0,-10.39453 c 0.5039,0.26953 0.6914,0.875 0.46094,1.375 -0.27344,0.5 -0.87891,0.69141 -1.38282,0.46094 l -23.28125,-11.46094 c -0.5039,-0.23047 -0.6914,-0.83593 -0.46093,-1.33593 0.27343,-0.54297 0.88281,-0.73047 1.38671,-0.5 z m 0,-10.39843 c 0.5039,0.23046 0.6914,0.83593 0.46094,1.33593 -0.27344,0.54297 -0.87891,0.73047 -1.38282,0.46094 l -23.28125,-11.41797 c -0.5039,-0.27344 -0.6914,-0.8789 -0.46093,-1.3789 0.27343,-0.5 0.88281,-0.6875 1.38671,-0.45704 z m 32.89062,47.25781 c -0.5039,0.23047 -1.11328,0.043 -1.34375,-0.45703 -0.27343,-0.5 -0.0391,-1.10547 0.46485,-1.37891 l 31.08593,-15.27734 c 0.50391,-0.23047 1.10938,-0.043 1.38282,0.45703 0.23047,0.5 0.043,1.10547 -0.46094,1.3789 z m 0,-10.3711 c -0.5039,0.22657 -1.11328,0.0391 -1.34375,-0.46093 -0.27343,-0.5 -0.0391,-1.10547 0.46485,-1.37891 l 31.08593,-15.27734 c 0.50391,-0.27344 1.10938,-0.043 1.38282,0.45703 0.23047,0.5039 0.043,1.10937 -0.46094,1.33594 z m 7.83203,-14.25781 c -0.5039,0.23047 -1.11328,0.043 -1.38671,-0.46094 -0.23047,-0.5 -0.043,-1.10546 0.46093,-1.375 l 23.27735,-11.41796 c 0.5039,-0.27344 1.11328,-0.043 1.38672,0.45703 0.23046,0.5 0.043,1.10547 -0.46094,1.33593 z m 0,-10.39453 c -0.5039,0.23047 -1.11328,0.0391 -1.38671,-0.46094 -0.23047,-0.5 -0.043,-1.10547 0.46093,-1.375 l 23.27735,-11.46093 c 0.5039,-0.23047 1.11328,-0.043 1.38672,0.5 0.23046,0.5 0.043,1.10546 -0.46094,1.33593 z m 0,-10.4375 c -0.5039,0.26953 -1.11328,0.082 -1.38671,-0.46094 -0.23047,-0.5 -0.043,-1.10547 0.46093,-1.33593 l 23.27735,-11.45704 c 0.5039,-0.23046 1.11328,-0.043 1.38672,0.45704 0.23046,0.5 0.043,1.10546 -0.46094,1.3789 z m -13.91796,58.75781 c -0.31641,0.23047 -0.69141,0.33594 -1.11329,0.33594 h -11.60546 c -0.42188,0 -0.80079,-0.10547 -1.11329,-0.33594 l -44.28906,-22.5 c -0.77734,-0.3125 -1.26172,-1.02343 -1.26172,-1.92187 v -59.15625 c 0,-0.3125 0.043,-0.60547 0.19141,-0.91797 0.50391,-1 1.71875,-1.41797 2.72656,-0.91797 l 44.51953,21.89844 c 0.73438,0.3125 1.26172,1.01953 1.26172,1.875 v 16.15625 l 1.65625,0.96094 0.10547,0.0859 1.99609,1.14844 2.11719,-1.23437 1.66016,-0.96094 v -16.15625 c 0,-0.83203 0.54687,-1.5625 1.25781,-1.875 l 44.54297,-21.89844 c 1.00781,-0.5 2.22266,-0.082 2.72656,0.91797 0.14844,0.3125 0.19141,0.60547 0.19141,0.91797 v 59.17969 c 0,0.875 -0.50391,1.60546 -1.26172,1.91796 z m -14.73438,-4.98828 v -27.59375 c -2.12109,-1.2539 -3.88281,-2.98437 -5.14453,-5.01172 -1.46875,-2.35547 -2.35156,-5.11328 -2.35156,-8.05468 0,-2.85938 0.80078,-5.53125 2.18359,-7.78516 l 0.0859,-0.10547 0.043,-0.10547 0.082,-0.082 v -0.043 l 0.043,-0.082 0.0391,-0.043 0.043,-0.082 0.0859,-0.0859 0.0391,-0.082 0.0859,-0.0859 v -0.0391 l 0.082,-0.0859 v -0.0391 l 0.0859,-0.0859 0.043,-0.10156 h 0.0391 l 0.043,-0.0859 0.0859,-0.10156 0.082,-0.0859 v -0.043 l 0.0859,-0.082 h 0.0391 l 0.043,-0.082 0.0859,-0.0859 0.0391,-0.082 0.043,-0.043 0.043,-0.0391 0.043,-0.043 0.0391,-0.082 0.0859,-0.0859 0.043,-0.0391 0.0391,-0.0859 0.0859,-0.10547 0.10547,-0.082 0.082,-0.082 v -0.043 l 0.0859,-0.082 0.14454,-0.14843 0.043,-0.0391 0.0859,-0.0859 0.0391,-0.043 0.043,-0.082 0.043,-0.043 0.082,-0.0391 v -0.043 l 0.0859,-0.082 h 0.043 l 0.082,-0.0859 0.0859,-0.082 0.082,-0.082 v -0.043 l 0.0859,-0.043 0.10156,-0.10547 0.0859,-0.082 h 0.043 l 0.0391,-0.082 c 0.10547,-0.0859 0.1914,-0.14844 0.27344,-0.23047 l 0.0859,-0.043 0.0391,-0.0391 0.0859,-0.043 v 0.16797 l 0.082,-0.043 v -0.043 l 0.10547,-0.0391 v -0.043 l 0.0859,-0.043 v -0.043 l 0.10547,-0.0391 v -0.043 l 0.082,-0.043 0.0859,-0.0391 0.0391,-0.043 0.0859,-0.043 0.043,-0.0391 0.0391,-0.043 0.0859,-0.043 h 0.043 l 0.082,-0.082 0.0859,-0.082 h 0.0391 l 0.0859,-0.0859 0.10547,-0.043 0.10547,-0.082 0.082,-0.082 h 0.043 l 0.082,-0.043 v -0.043 l 0.0859,-0.0391 0.10547,-0.0859 h 0.0391 l 0.0859,-0.0391 v -1.69141 L 139.1951,123.84357 v 54.70703 z m 11.58594,-28.92969 c 0.043,-0.77343 0.54687,-1.42187 1.23828,-1.71093 l 0.082,-0.043 0.043,-0.043 h 0.043 l 0.043,-0.0391 0.082,-0.043 0.0859,-0.043 0.082,-0.0391 h 0.043 l 0.043,-0.043 0.0391,-0.043 0.043,-0.0391 h 0.043 l 0.082,-0.043 0.0859,-0.043 0.043,-0.043 h 0.0391 l 0.043,-0.0391 0.043,-0.043 0.082,-0.043 0.043,-0.0391 h 0.043 l 0.043,-0.043 0.082,-0.043 0.0859,-0.0391 0.082,-0.0859 h 0.043 l 0.043,-0.0391 0.0391,-0.043 0.043,-0.043 h 0.043 l 0.043,-0.0391 0.0391,-0.043 h 0.043 l 0.16797,-0.16797 h 0.043 l 0.125,-0.125 h 0.043 l 0.16797,-0.16797 h 0.043 l 0.125,-0.125 0.043,-0.0391 0.0391,-0.043 h 0.043 l 0.125,-0.125 v -0.043 l 0.0859,-0.043 0.125,-0.125 0.043,-0.0391 0.0391,-0.043 0.043,-0.043 0.043,-0.0391 h 0.043 l 0.0391,-0.0859 0.0859,-0.0391 v -0.043 l 0.043,-0.043 0.0391,-0.043 0.043,-0.0391 0.16796,-0.16797 0.043,-0.082 h 0.043 l 0.0391,-0.0859 0.0859,-0.0391 v -0.043 l 0.125,-0.125 v -0.043 l 0.0859,-0.043 v -0.0391 l 0.0391,-0.043 0.043,-0.043 0.043,-0.0391 v -0.043 l 0.125,-0.125 v -0.043 l 0.0859,-0.0391 v -0.043 l 0.0391,-0.043 v -0.0391 l 0.0859,-0.043 v -0.043 l 0.043,-0.043 v -0.0391 l 0.082,-0.0859 0.0859,-0.16407 h 0.0391 l 0.043,-0.0859 0.043,-0.082 0.082,-0.082 0.043,-0.0859 c 1.07032,-1.71094 1.69922,-3.73438 1.69922,-5.92578 0,-2.10938 -0.5664,-4.05079 -1.57422,-5.74219 -0.375,-0.64844 -0.83984,-1.25391 -1.34375,-1.79297 v 8.59766 c 0,0.6875 -0.33593,1.3789 -1.0039,1.7539 l -3.14844,1.79688 v -0.043 l -3.10937,1.79297 c -0.60938,0.3789 -1.38282,0.41797 -2.03516,0.043 l -3.04297,-1.75391 -0.10547,-0.0391 -3,-1.75391 c -0.69531,-0.31641 -1.15625,-1.00391 -1.15625,-1.79687 V 150.625 c -0.5039,0.53906 -0.96484,1.14453 -1.34375,1.79297 -1.00781,1.6914 -1.57422,3.63281 -1.57422,5.74219 0,2.16796 0.60938,4.19531 1.69922,5.92578 1.07031,1.71093 2.64453,3.17187 4.53516,4.09375 h 0.043 l 0.043,0.0391 h 0.0391 l 0.043,0.043 h 0.043 l 0.043,0.043 h 0.0391 l 0.043,0.0391 h 0.043 v 0.043 l 0.043,0.043 h 0.0391 l 0.043,0.0391 0.043,0.043 h 0.043 v 0.043 l 0.0391,0.0391 h 0.043 v 0.043 l 0.043,0.043 h 0.0391 v 0.0391 l 0.12891,0.12891 v 0.0391 l 0.0391,0.043 0.043,0.043 0.043,0.0391 v 0.043 l 0.043,0.043 v 0.0391 l 0.0391,0.043 v 0.043 l 0.043,0.0391 v 0.043 h 0.043 v 0.082 l 0.043,0.043 v 0.0859 l 0.0391,0.0391 v 0.125 l 0.043,0.043 v 0.16796 l 0.043,0.0391 v 30.35156 h 7.53515 v -30.01563 z m 0,0"
   stroke-linecap="round"
   id="path451" />
</g>
		<g
   transform="matrix(1.33,0,0,1.33,-73.86,53.73)"
   id="g457">
<path
   style="opacity:1;fill:#000000;fill-rule:nonzero;stroke:none;stroke-width:1;stroke-linecap:butt;stroke-linejoin:miter;stroke-miterlimit:4;stroke-dasharray:none;stroke-dashoffset:0"
   vector-effect="non-scaling-stroke"
   transform="translate(-8.04,10.61)"
   d="M 6.539062,-18.328125 V 0 h 3.03125 v -18.328125 h 6.328126 v -2.882813 H 0.179688 v 2.882813 z m 0,0"
   stroke-linecap="round"
   id="path455" />
</g>
		<g
   transform="matrix(1.33,0,0,1.33,-50.4,57.09)"
   id="g461">
<path
   style="opacity:1;fill:#000000;fill-rule:nonzero;stroke:none;stroke-width:1;stroke-linecap:butt;stroke-linejoin:miter;stroke-miterlimit:4;stroke-dasharray:none;stroke-dashoffset:0"
   vector-effect="non-scaling-stroke"
   transform="translate(-9.83,8.08)"
   d="m 18.179688,-8.820312 c -0.328126,-5.101563 -4.289063,-7.648438 -8.308594,-7.648438 -4.292969,0 -8.429688,2.789062 -8.429688,8.367188 0,5.582031 4.199219,8.402343 8.367188,8.402343 3.332031,0 6.660156,-1.769531 7.890625,-5.3125 h -3.027344 c -0.960937,1.832031 -2.820313,2.703125 -4.832031,2.703125 -2.429688,0 -5.460938,-1.921875 -5.460938,-5.101562 h 13.742188 c 0.05859,-0.269532 0.08984,-0.570313 0.08984,-0.898438 0,-0.179687 0,-0.332031 -0.03125,-0.511718 z M 15.089844,-9.839844 H 4.5 c 0.601562,-2.878906 3,-4.050781 5.371094,-4.050781 2.339844,0 4.648437,1.140625 5.21875,4.050781 z m 0,0"
   stroke-linecap="round"
   id="path459" />
</g>
		<g
   transform="matrix(1.33,0,0,1.33,-26.88,56.91)"
   id="g465">
<path
   style="opacity:1;fill:#000000;fill-rule:nonzero;stroke:none;stroke-width:1;stroke-linecap:butt;stroke-linejoin:miter;stroke-miterlimit:4;stroke-dasharray:none;stroke-dashoffset:0"
   vector-effect="non-scaling-stroke"
   transform="translate(-7.96,8.22)"
   d="m 3.871094,-16.46875 h -3.0625 v 0.238281 l 5.519531,7.921875 -5.398437,8.160156 V 0.03125 H 3.988281 L 7.921875,-6.089844 11.878906,0.03125 H 15 v -0.0898438 l -5.488281,-8.2500002 5.609375,-8.070312 v -0.08984 H 11.96875 l -4.046875,5.820312 z m 0,0"
   stroke-linecap="round"
   id="path463" />
</g>
		<g
   transform="matrix(1.33,0,0,1.33,-9.84,54.71)"
   id="g469">
<path
   style="opacity:1;fill:#000000;fill-rule:nonzero;stroke:none;stroke-width:1;stroke-linecap:butt;stroke-linejoin:miter;stroke-miterlimit:4;stroke-dasharray:none;stroke-dashoffset:0"
   vector-effect="non-scaling-stroke"
   transform="translate(-5.23,9.87)"
   d="m 6.089844,-16.230469 v -3.597656 l -2.941406,0.566406 v 3.03125 H 0.71875 v 2.339844 h 2.429688 v 9.121094 c 0,3.78125 2.070312,4.8593748 5.25,4.8593748 0.421874,0 0.871093,-0.03125 1.351562,-0.0585938 v -2.460938 c -0.449219,0.03125 -0.871094,0.058594 -1.230469,0.058594 -1.46875,0 -2.429687,-0.449218 -2.429687,-2.367187 v -9.152344 h 3.570312 v -2.339844 z m 0,0"
   stroke-linecap="round"
   id="path467" />
</g>
		<g
   transform="matrix(1.33,0,0,1.33,8.32,53.75)"
   id="g473">
<path
   style="opacity:1;fill:#000000;fill-rule:nonzero;stroke:none;stroke-width:1;stroke-linecap:butt;stroke-linejoin:miter;stroke-miterlimit:4;stroke-dasharray:none;stroke-dashoffset:0"
   vector-effect="non-scaling-stroke"
   transform="translate(-8.83,10.59)"
   d="m 2.578125,0 h 3.03125 v -9.210938 h 8.402344 V -12.03125 H 5.609375 v -6.207031 h 9.480469 v -2.941407 H 2.578125 Z m 0,0"
   stroke-linecap="round"
   id="path471" />
</g>
		<g
   transform="matrix(1.33,0,0,1.33,22.1,53.87)"
   id="g477">
<path
   style="opacity:1;fill:#000000;fill-rule:nonzero;stroke:none;stroke-width:1;stroke-linecap:butt;stroke-linejoin:miter;stroke-miterlimit:4;stroke-dasharray:none;stroke-dashoffset:0"
   vector-effect="non-scaling-stroke"
   transform="translate(-3.72,10.5)"
   d="M 2.25,0 H 5.191406 V -21 H 2.25 Z m 0,0"
   stroke-linecap="round"
   id="path475" />
</g>
		<g
   transform="matrix(1.33,0,0,1.33,40.4,57.07)"
   id="g481">
<path
   style="opacity:1;fill:#000000;fill-rule:nonzero;stroke:none;stroke-width:1;stroke-linecap:butt;stroke-linejoin:miter;stroke-miterlimit:4;stroke-dasharray:none;stroke-dashoffset:0"
   vector-effect="non-scaling-stroke"
   transform="translate(-10.3,8.1)"
   d="m 19.050781,-8.101562 c 0,-5.578126 -4.320312,-8.398438 -8.699219,-8.398438 -4.410156,0 -8.792968,2.789062 -8.792968,8.398438 0,5.582031 4.351562,8.402343 8.703125,8.402343 4.410156,0 8.789062,-2.789062 8.789062,-8.402343 z m -14.550781,0 c 0,-3.867188 2.910156,-5.789063 5.851562,-5.789063 2.878907,0 5.789063,1.949219 5.789063,5.789063 0,3.8125 -2.910156,5.761718 -5.820313,5.761718 C 7.410156,-2.339844 4.5,-4.261719 4.5,-8.101562 Z m 0,0"
   stroke-linecap="round"
   id="path479" />
</g>
		<g
   transform="matrix(1.33,0,0,1.33,69.74,57.13)"
   id="g485">
<path
   style="opacity:1;fill:#000000;fill-rule:nonzero;stroke:none;stroke-width:1;stroke-linecap:butt;stroke-linejoin:miter;stroke-miterlimit:4;stroke-dasharray:none;stroke-dashoffset:0"
   vector-effect="non-scaling-stroke"
   transform="translate(-11.79,8.05)"
   d="M 5.28125,-11.789062 3.929688,-16.230469 H 0.839844 L 6.148438,0.121094 h 2.222656 l 2.007812,-6.359375 1.410156,-4.890625 1.410157,4.890625 1.980469,6.359375 h 2.25 l 5.308593,-16.351563 h -3.089843 l -1.378907,4.441407 -1.917969,6.960937 -3.273437,-11.402344 H 10.46875 L 7.230469,-4.828125 Z m 0,0"
   stroke-linecap="round"
   id="path483" />
</g>
		<g
   transform="matrix(1.33,0,0,1.33,-41.03,84.6)"
   id="g489">
<path
   style="opacity:1;fill:#000000;fill-rule:nonzero;stroke:none;stroke-width:1;stroke-linecap:butt;stroke-linejoin:miter;stroke-miterlimit:4;stroke-dasharray:none;stroke-dashoffset:0"
   vector-effect="non-scaling-stroke"
   transform="translate(-1.67,4.28)"
   d="m 1.171875,0 v -8.5625 h 1 V 0 Z m 0,0"
   stroke-linecap="round"
   id="path487" />
</g>
		<g
   transform="matrix(1.33,0,0,1.33,-30.29,85.95)"
   id="g493">
<path
   style="opacity:1;fill:#000000;fill-rule:nonzero;stroke:none;stroke-width:1;stroke-linecap:butt;stroke-linejoin:miter;stroke-miterlimit:4;stroke-dasharray:none;stroke-dashoffset:0"
   vector-effect="non-scaling-stroke"
   transform="translate(-3.72,3.27)"
   d="m 5.421875,0 v -4.15625 c 0,-0.519531 -0.121094,-0.910156 -0.359375,-1.171875 C 4.832031,-5.585938 4.460938,-5.71875 3.953125,-5.71875 3.273438,-5.71875 2.78125,-5.535156 2.46875,-5.171875 2.15625,-4.804688 2,-4.207031 2,-3.375 V 0 H 1.03125 v -6.421875 h 0.796875 l 0.15625,0.875 H 2.03125 C 2.226562,-5.859375 2.503906,-6.101562 2.859375,-6.28125 3.222656,-6.457031 3.625,-6.546875 4.0625,-6.546875 c 0.78125,0 1.363281,0.1875 1.75,0.5625 0.394531,0.375 0.59375,0.976563 0.59375,1.796875 V 0 Z m 0,0"
   stroke-linecap="round"
   id="path491" />
</g>
		<g
   transform="matrix(1.33,0,0,1.33,-16.92,85.95)"
   id="g497">
<path
   style="opacity:1;fill:#000000;fill-rule:nonzero;stroke:none;stroke-width:1;stroke-linecap:butt;stroke-linejoin:miter;stroke-miterlimit:4;stroke-dasharray:none;stroke-dashoffset:0"
   vector-effect="non-scaling-stroke"
   transform="translate(-3.72,3.27)"
   d="m 5.421875,0 v -4.15625 c 0,-0.519531 -0.121094,-0.910156 -0.359375,-1.171875 C 4.832031,-5.585938 4.460938,-5.71875 3.953125,-5.71875 3.273438,-5.71875 2.78125,-5.535156 2.46875,-5.171875 2.15625,-4.804688 2,-4.207031 2,-3.375 V 0 H 1.03125 v -6.421875 h 0.796875 l 0.15625,0.875 H 2.03125 C 2.226562,-5.859375 2.503906,-6.101562 2.859375,-6.28125 3.222656,-6.457031 3.625,-6.546875 4.0625,-6.546875 c 0.78125,0 1.363281,0.1875 1.75,0.5625 0.394531,0.375 0.59375,0.976563 0.59375,1.796875 V 0 Z m 0,0"
   stroke-linecap="round"
   id="path495" />
</g>
		<g
   transform="matrix(1.33,0,0,1.33,-3.67,86.03)"
   id="g501">
<path
   style="opacity:1;fill:#000000;fill-rule:nonzero;stroke:none;stroke-width:1;stroke-linecap:butt;stroke-linejoin:miter;stroke-miterlimit:4;stroke-dasharray:none;stroke-dashoffset:0"
   vector-effect="non-scaling-stroke"
   transform="translate(-3.63,3.21)"
   d="m 6.578125,-3.21875 c 0,1.054688 -0.265625,1.875 -0.796875,2.46875 -0.523438,0.585938 -1.25,0.875 -2.1875,0.875 C 3.019531,0.125 2.507812,-0.0078125 2.0625,-0.28125 1.625,-0.550781 1.28125,-0.9375 1.03125,-1.4375 0.789062,-1.945312 0.671875,-2.539062 0.671875,-3.21875 c 0,-1.039062 0.257813,-1.851562 0.78125,-2.4375 0.53125,-0.59375 1.257813,-0.890625 2.1875,-0.890625 0.894531,0 1.609375,0.304687 2.140625,0.90625 0.53125,0.59375 0.796875,1.402344 0.796875,2.421875 z m -4.890625,0 c 0,0.824219 0.160156,1.449219 0.484375,1.875 0.332031,0.429688 0.816406,0.640625 1.453125,0.640625 0.632812,0 1.113281,-0.210937 1.4375,-0.640625 0.332031,-0.425781 0.5,-1.050781 0.5,-1.875 0,-0.8125 -0.167969,-1.429688 -0.5,-1.859375 C 4.738281,-5.503906 4.253906,-5.71875 3.609375,-5.71875 c -0.636719,0 -1.117187,0.214844 -1.4375,0.640625 C 1.847656,-4.660156 1.6875,-4.039062 1.6875,-3.21875 Z m 0,0"
   stroke-linecap="round"
   id="path499" />
</g>
		<g
   transform="matrix(1.33,0,0,1.33,8.72,86.03)"
   id="g505">
<path
   style="opacity:1;fill:#000000;fill-rule:nonzero;stroke:none;stroke-width:1;stroke-linecap:butt;stroke-linejoin:miter;stroke-miterlimit:4;stroke-dasharray:none;stroke-dashoffset:0"
   vector-effect="non-scaling-stroke"
   transform="translate(-3.01,3.21)"
   d="M 2.4375,0 0,-6.421875 h 1.046875 l 1.375,3.8125 c 0.3125,0.886719 0.5,1.464844 0.5625,1.734375 H 3.03125 C 3.070312,-1.082031 3.207031,-1.507812 3.4375,-2.15625 3.664062,-2.8125 4.175781,-4.234375 4.96875,-6.421875 H 6.015625 L 3.578125,0 Z m 0,0"
   stroke-linecap="round"
   id="path503" />
</g>
		<g
   transform="matrix(1.33,0,0,1.33,18.31,84.44)"
   id="g509">
<path
   style="opacity:1;fill:#000000;fill-rule:nonzero;stroke:none;stroke-width:1;stroke-linecap:butt;stroke-linejoin:miter;stroke-miterlimit:4;stroke-dasharray:none;stroke-dashoffset:0"
   vector-effect="non-scaling-stroke"
   transform="translate(-1.52,4.41)"
   d="M 2,0 H 1.03125 V -6.421875 H 2 Z M 0.953125,-8.15625 c 0,-0.226562 0.050781,-0.394531 0.15625,-0.5 0.113281,-0.101562 0.253906,-0.15625 0.421875,-0.15625 0.15625,0 0.285156,0.058594 0.390625,0.171875 0.113281,0.105469 0.171875,0.265625 0.171875,0.484375 0,0.21875 -0.058594,0.382812 -0.171875,0.484375 -0.105469,0.105469 -0.234375,0.15625 -0.390625,0.15625 -0.167969,0 -0.308594,-0.050781 -0.421875,-0.15625 C 1.003906,-7.773438 0.953125,-7.9375 0.953125,-8.15625 Z m 0,0"
   stroke-linecap="round"
   id="path507" />
</g>
		<g
   transform="matrix(1.33,0,0,1.33,27.75,86.03)"
   id="g513">
<path
   style="opacity:1;fill:#000000;fill-rule:nonzero;stroke:none;stroke-width:1;stroke-linecap:butt;stroke-linejoin:miter;stroke-miterlimit:4;stroke-dasharray:none;stroke-dashoffset:0"
   vector-effect="non-scaling-stroke"
   transform="translate(-2.9,3.21)"
   d="m 5.171875,-1.75 c 0,0.59375 -0.226563,1.058594 -0.671875,1.390625 C 4.0625,-0.0351562 3.4375,0.125 2.625,0.125 1.78125,0.125 1.117188,-0.0078125 0.640625,-0.28125 V -1.1875 c 0.3125,0.15625 0.640625,0.28125 0.984375,0.375 0.351562,0.085938 0.695312,0.125 1.03125,0.125 0.507812,0 0.898438,-0.078125 1.171875,-0.234375 0.269531,-0.164063 0.40625,-0.414063 0.40625,-0.75 0,-0.25 -0.109375,-0.460937 -0.328125,-0.640625 -0.210938,-0.175781 -0.632812,-0.382812 -1.265625,-0.625 -0.59375,-0.226562 -1.023437,-0.425781 -1.28125,-0.59375 -0.25,-0.164062 -0.4375,-0.351562 -0.5625,-0.5625 C 0.679688,-4.300781 0.625,-4.550781 0.625,-4.84375 c 0,-0.519531 0.210938,-0.929688 0.640625,-1.234375 0.425781,-0.3125 1.007813,-0.46875 1.75,-0.46875 0.6875,0 1.363281,0.140625 2.03125,0.421875 L 4.6875,-5.328125 C 4.050781,-5.585938 3.46875,-5.71875 2.9375,-5.71875 c -0.460938,0 -0.808594,0.074219 -1.046875,0.21875 -0.230469,0.136719 -0.34375,0.335938 -0.34375,0.59375 0,0.167969 0.039063,0.3125 0.125,0.4375 0.09375,0.117188 0.234375,0.230469 0.421875,0.34375 0.195312,0.105469 0.578125,0.261719 1.140625,0.46875 0.757813,0.28125 1.269531,0.5625 1.53125,0.84375 0.269531,0.28125 0.40625,0.636719 0.40625,1.0625 z m 0,0"
   stroke-linecap="round"
   id="path511" />
</g>
		<g
   transform="matrix(1.33,0,0,1.33,39.59,86.03)"
   id="g517">
<path
   style="opacity:1;fill:#000000;fill-rule:nonzero;stroke:none;stroke-width:1;stroke-linecap:butt;stroke-linejoin:miter;stroke-miterlimit:4;stroke-dasharray:none;stroke-dashoffset:0"
   vector-effect="non-scaling-stroke"
   transform="translate(-3.39,3.21)"
   d="M 3.75,0.125 C 2.800781,0.125 2.050781,-0.164062 1.5,-0.75 0.945312,-1.332031 0.671875,-2.132812 0.671875,-3.15625 c 0,-1.039062 0.253906,-1.863281 0.765625,-2.46875 0.507812,-0.613281 1.195312,-0.921875 2.0625,-0.921875 0.800781,0 1.4375,0.265625 1.90625,0.796875 0.46875,0.53125 0.703125,1.230469 0.703125,2.09375 v 0.625 H 1.6875 c 0.019531,0.75 0.207031,1.324219 0.5625,1.71875 0.363281,0.386719 0.875,0.578125 1.53125,0.578125 0.6875,0 1.367188,-0.144531 2.046875,-0.4375 v 0.875 c -0.34375,0.148437 -0.671875,0.25 -0.984375,0.3125 C 4.539062,0.0859375 4.175781,0.125 3.75,0.125 Z M 3.484375,-5.71875 c -0.523437,0 -0.9375,0.167969 -1.25,0.5 -0.304687,0.335938 -0.480469,0.796875 -0.53125,1.390625 H 5.0625 c 0,-0.613281 -0.136719,-1.082031 -0.40625,-1.40625 C 4.382812,-5.554688 3.992188,-5.71875 3.484375,-5.71875 Z m 0,0"
   stroke-linecap="round"
   id="path515" />
</g>
</g>
</g></svg>
