<svg xmlns="http://www.w3.org/2000/svg" xmlns:xlink="http://www.w3.org/1999/xlink" width="500" zoomAndPan="magnify" viewBox="0 0 375 374.999991" height="500" preserveAspectRatio="xMidYMid meet" version="1.0"><defs><g/><clipPath id="56eadd017e"><path d="M 135.097656 118.296875 L 240.097656 118.296875 L 240.097656 204.519531 L 135.097656 204.519531 Z M 135.097656 118.296875 " clip-rule="nonzero"/></clipPath></defs><g clip-path="url(#56eadd017e)"><path fill="#6c97f8" d="M 195.425781 171.601562 L 195.425781 199.175781 L 236 178.550781 L 236 123.84375 L 195.425781 143.777344 L 195.425781 145.46875 L 195.65625 145.570312 L 195.742188 145.65625 L 195.847656 145.695312 L 195.929688 145.78125 L 196.035156 145.863281 L 196.140625 145.90625 L 196.226562 145.988281 L 196.328125 146.074219 C 196.476562 146.175781 196.644531 146.300781 196.792969 146.40625 L 196.832031 146.449219 L 196.875 146.488281 L 196.960938 146.53125 L 197 146.574219 L 197.085938 146.65625 L 197.167969 146.699219 L 197.210938 146.699219 L 197.296875 146.78125 L 197.378906 146.867188 L 197.484375 146.949219 L 197.652344 147.117188 L 197.695312 147.15625 L 197.777344 147.199219 L 197.863281 147.28125 L 197.902344 147.324219 L 198.050781 147.472656 L 198.09375 147.472656 L 198.136719 147.554688 L 198.175781 147.597656 L 198.21875 147.636719 L 198.304688 147.722656 C 198.386719 147.761719 198.40625 147.824219 198.492188 147.867188 L 198.535156 147.949219 L 198.574219 147.949219 L 198.660156 148.035156 L 198.660156 148.078125 L 198.742188 148.160156 L 198.828125 148.242188 L 198.910156 148.328125 L 198.953125 148.328125 L 198.996094 148.410156 L 199.039062 148.453125 L 199.078125 148.535156 L 199.121094 148.535156 L 199.164062 148.617188 L 199.246094 148.703125 L 199.289062 148.746094 L 199.332031 148.828125 L 199.414062 148.910156 L 199.5625 149.097656 L 199.644531 149.140625 L 199.644531 149.183594 L 199.730469 149.285156 L 199.8125 149.371094 L 199.898438 149.453125 L 199.980469 149.558594 L 200.066406 149.640625 L 200.066406 149.683594 L 200.148438 149.765625 L 200.191406 149.851562 L 200.234375 149.890625 L 200.277344 149.976562 L 200.316406 150.019531 L 200.359375 150.058594 L 200.402344 150.101562 L 200.445312 150.183594 L 200.484375 150.226562 L 200.484375 150.269531 L 200.527344 150.351562 L 200.570312 150.394531 L 200.613281 150.476562 L 200.652344 150.476562 L 200.695312 150.582031 L 200.78125 150.664062 L 200.78125 150.707031 L 200.863281 150.789062 L 200.90625 150.894531 L 200.988281 151 C 202.375 153.253906 203.171875 155.925781 203.171875 158.785156 C 203.171875 161.726562 202.289062 164.484375 200.820312 166.839844 C 199.308594 168.617188 197.546875 170.347656 195.425781 171.601562 Z M 175.488281 189.074219 C 175.992188 189.34375 176.222656 189.949219 175.949219 190.449219 C 175.71875 190.949219 175.109375 191.140625 174.605469 190.910156 L 143.496094 175.609375 C 142.992188 175.335938 142.804688 174.730469 143.035156 174.230469 C 143.308594 173.730469 143.917969 173.542969 144.421875 173.773438 Z M 175.488281 178.675781 C 175.992188 178.949219 176.222656 179.554688 175.949219 180.054688 C 175.71875 180.554688 175.109375 180.742188 174.605469 180.515625 L 143.496094 165.191406 C 142.992188 164.964844 142.804688 164.359375 143.035156 163.855469 C 143.308594 163.355469 143.917969 163.125 144.421875 163.398438 Z M 167.699219 164.421875 C 168.203125 164.691406 168.390625 165.296875 168.160156 165.796875 C 167.886719 166.300781 167.28125 166.488281 166.777344 166.257812 L 143.496094 154.796875 C 142.992188 154.566406 142.804688 153.960938 143.035156 153.460938 C 143.308594 152.960938 143.917969 152.730469 144.421875 153.003906 Z M 167.699219 154.027344 C 168.203125 154.296875 168.390625 154.902344 168.160156 155.402344 C 167.886719 155.902344 167.28125 156.09375 166.777344 155.863281 L 143.496094 144.402344 C 142.992188 144.171875 142.804688 143.566406 143.035156 143.066406 C 143.308594 142.523438 143.917969 142.335938 144.421875 142.566406 Z M 167.699219 143.628906 C 168.203125 143.859375 168.390625 144.464844 168.160156 144.964844 C 167.886719 145.507812 167.28125 145.695312 166.777344 145.425781 L 143.496094 134.007812 C 142.992188 133.734375 142.804688 133.128906 143.035156 132.628906 C 143.308594 132.128906 143.917969 131.941406 144.421875 132.171875 Z M 200.589844 190.886719 C 200.085938 191.117188 199.476562 190.929688 199.246094 190.429688 C 198.972656 189.929688 199.207031 189.324219 199.710938 189.050781 L 230.796875 173.773438 C 231.300781 173.542969 231.90625 173.730469 232.179688 174.230469 C 232.410156 174.730469 232.222656 175.335938 231.71875 175.609375 Z M 200.589844 180.515625 C 200.085938 180.742188 199.476562 180.554688 199.246094 180.054688 C 198.972656 179.554688 199.207031 178.949219 199.710938 178.675781 L 230.796875 163.398438 C 231.300781 163.125 231.90625 163.355469 232.179688 163.855469 C 232.410156 164.359375 232.222656 164.964844 231.71875 165.191406 Z M 208.421875 166.257812 C 207.917969 166.488281 207.308594 166.300781 207.035156 165.796875 C 206.804688 165.296875 206.992188 164.691406 207.496094 164.421875 L 230.773438 153.003906 C 231.277344 152.730469 231.886719 152.960938 232.160156 153.460938 C 232.390625 153.960938 232.203125 154.566406 231.699219 154.796875 Z M 208.421875 155.863281 C 207.917969 156.09375 207.308594 155.902344 207.035156 155.402344 C 206.804688 154.902344 206.992188 154.296875 207.496094 154.027344 L 230.773438 142.566406 C 231.277344 142.335938 231.886719 142.523438 232.160156 143.066406 C 232.390625 143.566406 232.203125 144.171875 231.699219 144.402344 Z M 208.421875 145.425781 C 207.917969 145.695312 207.308594 145.507812 207.035156 144.964844 C 206.804688 144.464844 206.992188 143.859375 207.496094 143.628906 L 230.773438 132.171875 C 231.277344 131.941406 231.886719 132.128906 232.160156 132.628906 C 232.390625 133.128906 232.203125 133.734375 231.699219 134.007812 Z M 194.503906 204.183594 C 194.1875 204.414062 193.8125 204.519531 193.390625 204.519531 L 181.785156 204.519531 C 181.363281 204.519531 180.984375 204.414062 180.671875 204.183594 L 136.382812 181.683594 C 135.605469 181.371094 135.121094 180.660156 135.121094 179.761719 L 135.121094 120.605469 C 135.121094 120.292969 135.164062 120 135.3125 119.6875 C 135.816406 118.6875 137.03125 118.269531 138.039062 118.769531 L 182.558594 140.667969 C 183.292969 140.980469 183.820312 141.6875 183.820312 142.542969 L 183.820312 158.699219 L 185.476562 159.660156 L 185.582031 159.746094 L 187.578125 160.894531 L 189.695312 159.660156 L 191.355469 158.699219 L 191.355469 142.542969 C 191.355469 141.710938 191.902344 140.980469 192.613281 140.667969 L 237.15625 118.769531 C 238.164062 118.269531 239.378906 118.6875 239.882812 119.6875 C 240.03125 120 240.074219 120.292969 240.074219 120.605469 L 240.074219 179.785156 C 240.074219 180.660156 239.570312 181.390625 238.8125 181.703125 Z M 179.769531 199.195312 L 179.769531 171.601562 C 177.648438 170.347656 175.886719 168.617188 174.625 166.589844 C 173.15625 164.234375 172.273438 161.476562 172.273438 158.535156 C 172.273438 155.675781 173.074219 153.003906 174.457031 150.75 L 174.542969 150.644531 L 174.585938 150.539062 L 174.667969 150.457031 L 174.667969 150.414062 L 174.710938 150.332031 L 174.75 150.289062 L 174.792969 150.207031 L 174.878906 150.121094 L 174.917969 150.039062 L 175.003906 149.953125 L 175.003906 149.914062 L 175.085938 149.828125 L 175.085938 149.789062 L 175.171875 149.703125 L 175.214844 149.601562 L 175.253906 149.601562 L 175.296875 149.515625 L 175.382812 149.414062 L 175.464844 149.328125 L 175.464844 149.285156 L 175.550781 149.203125 L 175.589844 149.203125 L 175.632812 149.121094 L 175.71875 149.035156 L 175.757812 148.953125 L 175.800781 148.910156 L 175.84375 148.871094 L 175.886719 148.828125 L 175.925781 148.746094 L 176.011719 148.660156 L 176.054688 148.621094 L 176.09375 148.535156 L 176.179688 148.429688 L 176.285156 148.347656 L 176.367188 148.265625 L 176.367188 148.222656 L 176.453125 148.140625 L 176.597656 147.992188 L 176.640625 147.953125 L 176.726562 147.867188 L 176.765625 147.824219 L 176.808594 147.742188 L 176.851562 147.699219 L 176.933594 147.660156 L 176.933594 147.617188 L 177.019531 147.535156 L 177.0625 147.535156 L 177.144531 147.449219 L 177.230469 147.367188 L 177.3125 147.285156 L 177.3125 147.242188 L 177.398438 147.199219 L 177.5 147.09375 L 177.585938 147.011719 L 177.628906 147.011719 L 177.667969 146.929688 C 177.773438 146.84375 177.859375 146.78125 177.941406 146.699219 L 178.027344 146.65625 L 178.066406 146.617188 L 178.152344 146.574219 L 178.152344 146.742188 L 178.234375 146.699219 L 178.234375 146.65625 L 178.339844 146.617188 L 178.339844 146.574219 L 178.425781 146.53125 L 178.425781 146.488281 L 178.53125 146.449219 L 178.53125 146.40625 L 178.613281 146.363281 L 178.699219 146.324219 L 178.738281 146.28125 L 178.824219 146.238281 L 178.867188 146.199219 L 178.90625 146.15625 L 178.992188 146.113281 L 179.035156 146.113281 L 179.117188 146.03125 L 179.203125 145.949219 L 179.242188 145.949219 L 179.328125 145.863281 L 179.433594 145.820312 L 179.539062 145.738281 L 179.621094 145.65625 L 179.664062 145.65625 L 179.746094 145.613281 L 179.746094 145.570312 L 179.832031 145.53125 L 179.9375 145.445312 L 179.976562 145.445312 L 180.0625 145.40625 L 180.0625 143.714844 L 139.195312 123.84375 L 139.195312 178.550781 Z M 191.355469 170.265625 C 191.398438 169.492188 191.902344 168.84375 192.59375 168.554688 L 192.675781 168.511719 L 192.71875 168.46875 L 192.761719 168.46875 L 192.804688 168.429688 L 192.886719 168.386719 L 192.972656 168.34375 L 193.054688 168.304688 L 193.097656 168.304688 L 193.140625 168.261719 L 193.179688 168.21875 L 193.222656 168.179688 L 193.265625 168.179688 L 193.347656 168.136719 L 193.433594 168.09375 L 193.476562 168.050781 L 193.515625 168.050781 L 193.558594 168.011719 L 193.601562 167.96875 L 193.683594 167.925781 L 193.726562 167.886719 L 193.769531 167.886719 L 193.8125 167.84375 L 193.894531 167.800781 L 193.980469 167.761719 L 194.0625 167.675781 L 194.105469 167.675781 L 194.148438 167.636719 L 194.1875 167.59375 L 194.230469 167.550781 L 194.273438 167.550781 L 194.316406 167.511719 L 194.355469 167.46875 L 194.398438 167.46875 L 194.566406 167.300781 L 194.609375 167.300781 L 194.734375 167.175781 L 194.777344 167.175781 L 194.945312 167.007812 L 194.988281 167.007812 L 195.113281 166.882812 L 195.15625 166.84375 L 195.195312 166.800781 L 195.238281 166.800781 L 195.363281 166.675781 L 195.363281 166.632812 L 195.449219 166.589844 L 195.574219 166.464844 L 195.617188 166.425781 L 195.65625 166.382812 L 195.699219 166.339844 L 195.742188 166.300781 L 195.785156 166.300781 L 195.824219 166.214844 L 195.910156 166.175781 L 195.910156 166.132812 L 195.953125 166.089844 L 195.992188 166.046875 L 196.035156 166.007812 L 196.203125 165.839844 L 196.246094 165.757812 L 196.289062 165.757812 L 196.328125 165.671875 L 196.414062 165.632812 L 196.414062 165.589844 L 196.539062 165.464844 L 196.539062 165.421875 L 196.625 165.378906 L 196.625 165.339844 L 196.664062 165.296875 L 196.707031 165.253906 L 196.75 165.214844 L 196.75 165.171875 L 196.875 165.046875 L 196.875 165.003906 L 196.960938 164.964844 L 196.960938 164.921875 L 197 164.878906 L 197 164.839844 L 197.085938 164.796875 L 197.085938 164.753906 L 197.128906 164.710938 L 197.128906 164.671875 L 197.210938 164.585938 L 197.296875 164.421875 L 197.335938 164.421875 L 197.378906 164.335938 L 197.421875 164.253906 L 197.503906 164.171875 L 197.546875 164.085938 C 198.617188 162.375 199.246094 160.351562 199.246094 158.160156 C 199.246094 156.050781 198.679688 154.109375 197.671875 152.417969 C 197.296875 151.769531 196.832031 151.164062 196.328125 150.625 L 196.328125 159.222656 C 196.328125 159.910156 195.992188 160.601562 195.324219 160.976562 L 192.175781 162.773438 L 192.175781 162.730469 L 189.066406 164.523438 C 188.457031 164.902344 187.683594 164.941406 187.03125 164.566406 L 183.988281 162.8125 L 183.882812 162.773438 L 180.882812 161.019531 C 180.1875 160.703125 179.726562 160.015625 179.726562 159.222656 L 179.726562 150.625 C 179.222656 151.164062 178.761719 151.769531 178.382812 152.417969 C 177.375 154.109375 176.808594 156.050781 176.808594 158.160156 C 176.808594 160.328125 177.417969 162.355469 178.507812 164.085938 C 179.578125 165.796875 181.152344 167.257812 183.042969 168.179688 L 183.085938 168.179688 L 183.128906 168.21875 L 183.167969 168.21875 L 183.210938 168.261719 L 183.253906 168.261719 L 183.296875 168.304688 L 183.335938 168.304688 L 183.378906 168.34375 L 183.421875 168.34375 L 183.421875 168.386719 L 183.464844 168.429688 L 183.503906 168.429688 L 183.546875 168.46875 L 183.589844 168.511719 L 183.632812 168.511719 L 183.632812 168.554688 L 183.671875 168.59375 L 183.714844 168.59375 L 183.714844 168.636719 L 183.757812 168.679688 L 183.796875 168.679688 L 183.796875 168.71875 L 183.925781 168.847656 L 183.925781 168.886719 L 183.964844 168.929688 L 184.007812 168.972656 L 184.050781 169.011719 L 184.050781 169.054688 L 184.09375 169.097656 L 184.09375 169.136719 L 184.132812 169.179688 L 184.132812 169.222656 L 184.175781 169.261719 L 184.175781 169.304688 L 184.21875 169.304688 L 184.21875 169.386719 L 184.261719 169.429688 L 184.261719 169.515625 L 184.300781 169.554688 L 184.300781 169.679688 L 184.34375 169.722656 L 184.34375 169.890625 L 184.386719 169.929688 L 184.386719 200.28125 L 191.921875 200.28125 L 191.921875 170.265625 Z M 191.355469 170.265625 " fill-opacity="1" fill-rule="nonzero"/></g><g fill="#000000" fill-opacity="1"><g transform="translate(123.763971, 237.322324)"><g><path d="M 6.539062 -18.328125 L 6.539062 0 L 9.570312 0 L 9.570312 -18.328125 L 15.898438 -18.328125 L 15.898438 -21.210938 L 0.179688 -21.210938 L 0.179688 -18.328125 Z M 6.539062 -18.328125 "/></g></g></g><g fill="#000000" fill-opacity="1"><g transform="translate(139.573954, 237.322324)"><g><path d="M 18.179688 -8.820312 C 17.851562 -13.921875 13.890625 -16.46875 9.871094 -16.46875 C 5.578125 -16.46875 1.441406 -13.679688 1.441406 -8.101562 C 1.441406 -2.519531 5.640625 0.300781 9.808594 0.300781 C 13.140625 0.300781 16.46875 -1.46875 17.699219 -5.011719 L 14.671875 -5.011719 C 13.710938 -3.179688 11.851562 -2.308594 9.839844 -2.308594 C 7.410156 -2.308594 4.378906 -4.230469 4.378906 -7.410156 L 18.121094 -7.410156 C 18.179688 -7.679688 18.210938 -7.980469 18.210938 -8.308594 C 18.210938 -8.488281 18.210938 -8.640625 18.179688 -8.820312 Z M 15.089844 -9.839844 L 4.5 -9.839844 C 5.101562 -12.71875 7.5 -13.890625 9.871094 -13.890625 C 12.210938 -13.890625 14.519531 -12.75 15.089844 -9.839844 Z M 15.089844 -9.839844 "/></g></g></g><g fill="#000000" fill-opacity="1"><g transform="translate(159.073935, 237.322324)"><g><path d="M 3.871094 -16.46875 L 0.808594 -16.46875 L 0.808594 -16.230469 L 6.328125 -8.308594 L 0.929688 -0.148438 L 0.929688 0.03125 L 3.988281 0.03125 L 7.921875 -6.089844 L 11.878906 0.03125 L 15 0.03125 L 15 -0.0585938 L 9.511719 -8.308594 L 15.121094 -16.378906 L 15.121094 -16.46875 L 11.96875 -16.46875 L 7.921875 -10.648438 Z M 3.871094 -16.46875 "/></g></g></g><g fill="#000000" fill-opacity="1"><g transform="translate(174.583923, 237.322324)"><g><path d="M 6.089844 -16.230469 L 6.089844 -19.828125 L 3.148438 -19.261719 L 3.148438 -16.230469 L 0.71875 -16.230469 L 0.71875 -13.890625 L 3.148438 -13.890625 L 3.148438 -4.769531 C 3.148438 -0.988281 5.21875 0.0898438 8.398438 0.0898438 C 8.820312 0.0898438 9.269531 0.0585938 9.75 0.03125 L 9.75 -2.429688 C 9.300781 -2.398438 8.878906 -2.371094 8.519531 -2.371094 C 7.050781 -2.371094 6.089844 -2.820312 6.089844 -4.738281 L 6.089844 -13.890625 L 9.660156 -13.890625 L 9.660156 -16.230469 Z M 6.089844 -16.230469 "/></g></g></g><g fill="#000000" fill-opacity="1"><g transform="translate(184.603917, 237.322324)"><g><path d="M 2.578125 0 L 5.609375 0 L 5.609375 -9.210938 L 14.011719 -9.210938 L 14.011719 -12.03125 L 5.609375 -12.03125 L 5.609375 -18.238281 L 15.089844 -18.238281 L 15.089844 -21.179688 L 2.578125 -21.179688 Z M 2.578125 0 "/></g></g></g><g fill="#000000" fill-opacity="1"><g transform="translate(200.053903, 237.322324)"><g><path d="M 2.25 0 L 5.191406 0 L 5.191406 -21 L 2.25 -21 Z M 2.25 0 "/></g></g></g><g fill="#000000" fill-opacity="1"><g transform="translate(207.1939, 237.322324)"><g><path d="M 19.050781 -8.101562 C 19.050781 -13.679688 14.730469 -16.5 10.351562 -16.5 C 5.941406 -16.5 1.558594 -13.710938 1.558594 -8.101562 C 1.558594 -2.519531 5.910156 0.300781 10.261719 0.300781 C 14.671875 0.300781 19.050781 -2.488281 19.050781 -8.101562 Z M 4.5 -8.101562 C 4.5 -11.96875 7.410156 -13.890625 10.351562 -13.890625 C 13.230469 -13.890625 16.140625 -11.941406 16.140625 -8.101562 C 16.140625 -4.289062 13.230469 -2.339844 10.320312 -2.339844 C 7.410156 -2.339844 4.5 -4.261719 4.5 -8.101562 Z M 4.5 -8.101562 "/></g></g></g><g fill="#000000" fill-opacity="1"><g transform="translate(227.713876, 237.322324)"><g><path d="M 5.28125 -11.789062 L 3.929688 -16.230469 L 0.839844 -16.230469 L 6.148438 0.121094 L 8.371094 0.121094 L 10.378906 -6.238281 L 11.789062 -11.128906 L 13.199219 -6.238281 L 15.179688 0.121094 L 17.429688 0.121094 L 22.738281 -16.230469 L 19.648438 -16.230469 L 18.269531 -11.789062 L 16.351562 -4.828125 L 13.078125 -16.230469 L 10.46875 -16.230469 L 7.230469 -4.828125 Z M 5.28125 -11.789062 "/></g></g></g><g fill="#000000" fill-opacity="1"><g transform="translate(154.753435, 254.152601)"><g><path d="M 1.171875 0 L 1.171875 -8.5625 L 2.171875 -8.5625 L 2.171875 0 Z M 1.171875 0 "/></g></g></g><g fill="#000000" fill-opacity="1"><g transform="translate(160.763154, 254.152601)"><g><path d="M 5.421875 0 L 5.421875 -4.15625 C 5.421875 -4.675781 5.300781 -5.066406 5.0625 -5.328125 C 4.832031 -5.585938 4.460938 -5.71875 3.953125 -5.71875 C 3.273438 -5.71875 2.78125 -5.535156 2.46875 -5.171875 C 2.15625 -4.804688 2 -4.207031 2 -3.375 L 2 0 L 1.03125 0 L 1.03125 -6.421875 L 1.828125 -6.421875 L 1.984375 -5.546875 L 2.03125 -5.546875 C 2.226562 -5.859375 2.503906 -6.101562 2.859375 -6.28125 C 3.222656 -6.457031 3.625 -6.546875 4.0625 -6.546875 C 4.84375 -6.546875 5.425781 -6.359375 5.8125 -5.984375 C 6.207031 -5.609375 6.40625 -5.007812 6.40625 -4.1875 L 6.40625 0 Z M 5.421875 0 "/></g></g></g><g fill="#000000" fill-opacity="1"><g transform="translate(170.792404, 254.152601)"><g><path d="M 5.421875 0 L 5.421875 -4.15625 C 5.421875 -4.675781 5.300781 -5.066406 5.0625 -5.328125 C 4.832031 -5.585938 4.460938 -5.71875 3.953125 -5.71875 C 3.273438 -5.71875 2.78125 -5.535156 2.46875 -5.171875 C 2.15625 -4.804688 2 -4.207031 2 -3.375 L 2 0 L 1.03125 0 L 1.03125 -6.421875 L 1.828125 -6.421875 L 1.984375 -5.546875 L 2.03125 -5.546875 C 2.226562 -5.859375 2.503906 -6.101562 2.859375 -6.28125 C 3.222656 -6.457031 3.625 -6.546875 4.0625 -6.546875 C 4.84375 -6.546875 5.425781 -6.359375 5.8125 -5.984375 C 6.207031 -5.609375 6.40625 -5.007812 6.40625 -4.1875 L 6.40625 0 Z M 5.421875 0 "/></g></g></g><g fill="#000000" fill-opacity="1"><g transform="translate(180.821655, 254.152601)"><g><path d="M 6.578125 -3.21875 C 6.578125 -2.164062 6.3125 -1.34375 5.78125 -0.75 C 5.257812 -0.164062 4.53125 0.125 3.59375 0.125 C 3.019531 0.125 2.507812 -0.0078125 2.0625 -0.28125 C 1.625 -0.550781 1.28125 -0.9375 1.03125 -1.4375 C 0.789062 -1.945312 0.671875 -2.539062 0.671875 -3.21875 C 0.671875 -4.257812 0.929688 -5.070312 1.453125 -5.65625 C 1.984375 -6.25 2.710938 -6.546875 3.640625 -6.546875 C 4.535156 -6.546875 5.25 -6.242188 5.78125 -5.640625 C 6.3125 -5.046875 6.578125 -4.238281 6.578125 -3.21875 Z M 1.6875 -3.21875 C 1.6875 -2.394531 1.847656 -1.769531 2.171875 -1.34375 C 2.503906 -0.914062 2.988281 -0.703125 3.625 -0.703125 C 4.257812 -0.703125 4.738281 -0.914062 5.0625 -1.34375 C 5.394531 -1.769531 5.5625 -2.394531 5.5625 -3.21875 C 5.5625 -4.03125 5.394531 -4.648438 5.0625 -5.078125 C 4.738281 -5.503906 4.253906 -5.71875 3.609375 -5.71875 C 2.972656 -5.71875 2.492188 -5.503906 2.171875 -5.078125 C 1.847656 -4.660156 1.6875 -4.039062 1.6875 -3.21875 Z M 1.6875 -3.21875 "/></g></g></g><g fill="#000000" fill-opacity="1"><g transform="translate(190.733717, 254.152601)"><g><path d="M 2.4375 0 L 0 -6.421875 L 1.046875 -6.421875 L 2.421875 -2.609375 C 2.734375 -1.722656 2.921875 -1.144531 2.984375 -0.875 L 3.03125 -0.875 C 3.070312 -1.082031 3.207031 -1.507812 3.4375 -2.15625 C 3.664062 -2.8125 4.175781 -4.234375 4.96875 -6.421875 L 6.015625 -6.421875 L 3.578125 0 Z M 2.4375 0 "/></g></g></g><g fill="#000000" fill-opacity="1"><g transform="translate(199.409451, 254.152601)"><g><path d="M 2 0 L 1.03125 0 L 1.03125 -6.421875 L 2 -6.421875 Z M 0.953125 -8.15625 C 0.953125 -8.382812 1.003906 -8.550781 1.109375 -8.65625 C 1.222656 -8.757812 1.363281 -8.8125 1.53125 -8.8125 C 1.6875 -8.8125 1.816406 -8.753906 1.921875 -8.640625 C 2.035156 -8.535156 2.09375 -8.375 2.09375 -8.15625 C 2.09375 -7.9375 2.035156 -7.773438 1.921875 -7.671875 C 1.816406 -7.566406 1.6875 -7.515625 1.53125 -7.515625 C 1.363281 -7.515625 1.222656 -7.566406 1.109375 -7.671875 C 1.003906 -7.773438 0.953125 -7.9375 0.953125 -8.15625 Z M 0.953125 -8.15625 "/></g></g></g><g fill="#000000" fill-opacity="1"><g transform="translate(205.108626, 254.152601)"><g><path d="M 5.171875 -1.75 C 5.171875 -1.15625 4.945312 -0.691406 4.5 -0.359375 C 4.0625 -0.0351562 3.4375 0.125 2.625 0.125 C 1.78125 0.125 1.117188 -0.0078125 0.640625 -0.28125 L 0.640625 -1.1875 C 0.953125 -1.03125 1.28125 -0.90625 1.625 -0.8125 C 1.976562 -0.726562 2.320312 -0.6875 2.65625 -0.6875 C 3.164062 -0.6875 3.554688 -0.765625 3.828125 -0.921875 C 4.097656 -1.085938 4.234375 -1.335938 4.234375 -1.671875 C 4.234375 -1.921875 4.125 -2.132812 3.90625 -2.3125 C 3.695312 -2.488281 3.273438 -2.695312 2.640625 -2.9375 C 2.046875 -3.164062 1.617188 -3.363281 1.359375 -3.53125 C 1.109375 -3.695312 0.921875 -3.882812 0.796875 -4.09375 C 0.679688 -4.300781 0.625 -4.550781 0.625 -4.84375 C 0.625 -5.363281 0.835938 -5.773438 1.265625 -6.078125 C 1.691406 -6.390625 2.273438 -6.546875 3.015625 -6.546875 C 3.703125 -6.546875 4.378906 -6.40625 5.046875 -6.125 L 4.6875 -5.328125 C 4.050781 -5.585938 3.46875 -5.71875 2.9375 -5.71875 C 2.476562 -5.71875 2.128906 -5.644531 1.890625 -5.5 C 1.660156 -5.363281 1.546875 -5.164062 1.546875 -4.90625 C 1.546875 -4.738281 1.585938 -4.59375 1.671875 -4.46875 C 1.765625 -4.351562 1.90625 -4.238281 2.09375 -4.125 C 2.289062 -4.019531 2.671875 -3.863281 3.234375 -3.65625 C 3.992188 -3.375 4.503906 -3.09375 4.765625 -2.8125 C 5.035156 -2.53125 5.171875 -2.175781 5.171875 -1.75 Z M 5.171875 -1.75 "/></g></g></g><g fill="#000000" fill-opacity="1"><g transform="translate(213.497253, 254.152601)"><g><path d="M 3.75 0.125 C 2.800781 0.125 2.050781 -0.164062 1.5 -0.75 C 0.945312 -1.332031 0.671875 -2.132812 0.671875 -3.15625 C 0.671875 -4.195312 0.925781 -5.019531 1.4375 -5.625 C 1.945312 -6.238281 2.632812 -6.546875 3.5 -6.546875 C 4.300781 -6.546875 4.9375 -6.28125 5.40625 -5.75 C 5.875 -5.21875 6.109375 -4.519531 6.109375 -3.65625 L 6.109375 -3.03125 L 1.6875 -3.03125 C 1.707031 -2.28125 1.894531 -1.707031 2.25 -1.3125 C 2.613281 -0.925781 3.125 -0.734375 3.78125 -0.734375 C 4.46875 -0.734375 5.148438 -0.878906 5.828125 -1.171875 L 5.828125 -0.296875 C 5.484375 -0.148438 5.15625 -0.046875 4.84375 0.015625 C 4.539062 0.0859375 4.175781 0.125 3.75 0.125 Z M 3.484375 -5.71875 C 2.960938 -5.71875 2.546875 -5.550781 2.234375 -5.21875 C 1.929688 -4.882812 1.753906 -4.421875 1.703125 -3.828125 L 5.0625 -3.828125 C 5.0625 -4.441406 4.925781 -4.910156 4.65625 -5.234375 C 4.382812 -5.554688 3.992188 -5.71875 3.484375 -5.71875 Z M 3.484375 -5.71875 "/></g></g></g></svg>